<svg width="30" height="30" viewBox="0 0 30 30" fill="none" xmlns="http://www.w3.org/2000/svg">
<path d="M0.0849611 15C0.084961 21.9411 5.07398 28.1336 11.8676 29.5856C15.2622 30.311 18.8718 29.8223 21.9433 28.2039C24.8993 26.6463 27.2884 24.0927 28.6423 21.0375C30.051 17.8595 30.2965 14.2112 29.3358 10.871C28.4094 7.64855 26.376 4.79133 23.6465 2.84611C17.94 -1.22103 9.92468 -0.677248 4.81102 4.10771C1.81434 6.91173 0.0849612 10.8953 0.0849611 15ZM7.85444 14.1944L12.0196 10.0296C13.0593 8.98995 14.6716 10.6023 13.6316 11.642L11.5393 13.7339L21.2133 13.7339C21.9034 13.7339 22.4795 14.3103 22.4795 15.0004C22.4795 15.6905 21.9034 16.267 21.2133 16.267L11.491 16.267L13.5423 18.368C14.5679 19.4175 12.9407 21.0151 11.9109 19.9606L7.84494 15.7965C7.4087 15.3504 7.41288 14.636 7.85444 14.1944Z" fill="#A5A5A5"/>
</svg>
